<svg width="34" height="45" viewBox="0 0 34 45" fill="none" xmlns="http://www.w3.org/2000/svg">
<path fill-rule="evenodd" clip-rule="evenodd" d="M28.7111 43.8223V43.8223C31.6321 43.8223 34 41.4544 34 38.5334V38.5334L34 12.4667C34 11.0062 32.816 9.82227 31.3556 9.82227V9.82227C29.8951 9.82227 28.7111 11.0062 28.7111 12.4667L28.7111 28.5334C28.7111 34.0562 24.234 38.5334 18.7111 38.5334L2.64445 38.5334C1.18396 38.5334 4.17356e-06 39.7173 4.04588e-06 41.1778V41.1778C3.9182e-06 42.6383 1.18396 43.8223 2.64445 43.8223L28.7111 43.8223Z" fill="#368DA0"/>
<path fill-rule="evenodd" clip-rule="evenodd" d="M34 5.28889V5.28889C34 2.36792 31.6321 -1.03505e-07 28.7111 -2.31185e-07V-2.31185e-07L2.64445 -1.37059e-06C1.18396 -1.43443e-06 3.76294e-06 1.18396 3.6991e-06 2.64444V2.64444C3.63527e-06 4.10493 1.18396 5.28889 2.64445 5.28889L18.7111 5.28889C24.234 5.28889 28.7111 9.76604 28.7111 15.2889L28.7111 31.3556C28.7111 32.816 29.8951 34 31.3556 34V34C32.816 34 34 32.816 34 31.3556L34 5.28889Z" fill="#368DA0"/>
<path d="M9.63793 25.8667V12.9867H15.8779C17.1579 12.9867 18.1046 13.2867 18.7179 13.8867C19.3313 14.4867 19.6379 15.3334 19.6379 16.4267C19.6379 17.12 19.4979 17.7067 19.2179 18.1867C18.9379 18.6534 18.5646 19.0067 18.0979 19.2467C18.7246 19.42 19.2179 19.7334 19.5779 20.1867C19.9513 20.6267 20.1379 21.28 20.1379 22.1467C20.1379 23.4 19.7979 24.3334 19.1179 24.9467C18.4513 25.56 17.4646 25.8667 16.1579 25.8667H9.63793ZM11.8179 18.4867H15.5779C16.3113 18.4867 16.8313 18.32 17.1379 17.9867C17.4579 17.64 17.6179 17.18 17.6179 16.6067C17.6179 15.94 17.4579 15.4467 17.1379 15.1267C16.8179 14.7934 16.2179 14.6267 15.3379 14.6267H11.8179V18.4867ZM11.8179 24.2667H15.6979C16.4713 24.2667 17.0379 24.1067 17.3979 23.7867C17.7579 23.4534 17.9379 22.88 17.9379 22.0667C17.9379 21.4 17.7579 20.9067 17.3979 20.5867C17.0513 20.2534 16.4113 20.0867 15.4779 20.0867H11.8179V24.2667Z" fill="#368DA0"/>
</svg>
